# This file uses centimeters as units for non-parametric coordinates.

mtllib Lamp.mtl
g default
v 0.726303 -1.274940 -0.235990
v 0.617830 -1.274940 -0.448880
v 0.448880 -1.274940 -0.617830
v 0.235990 -1.274940 -0.726303
v -0.000000 -1.274940 -0.763680
v -0.235990 -1.274940 -0.726303
v -0.448880 -1.274940 -0.617830
v -0.617830 -1.274940 -0.448880
v -0.726303 -1.274940 -0.235990
v -0.763680 -1.274940 -0.000000
v -0.726303 -1.274940 0.235990
v -0.617830 -1.274940 0.448880
v -0.448880 -1.274940 0.617830
v -0.235990 -1.274940 0.726302
v -0.000000 -1.274940 0.763679
v 0.235990 -1.274940 0.726302
v 0.448879 -1.274940 0.617830
v 0.617830 -1.274940 0.448879
v 0.726302 -1.274940 0.235990
v 0.763679 -1.274940 -0.000000
v 0.726303 1.274940 -0.235990
v 0.617830 1.274940 -0.448880
v 0.448880 1.274940 -0.617830
v 0.235990 1.274940 -0.726303
v -0.000000 1.274940 -0.763680
v -0.235990 1.274940 -0.726303
v -0.448880 1.274940 -0.617830
v -0.617830 1.274940 -0.448880
v -0.726303 1.274940 -0.235990
v -0.763680 1.274940 -0.000000
v -0.726303 1.274940 0.235990
v -0.617830 1.274940 0.448880
v -0.448880 1.274940 0.617830
v -0.235990 1.274940 0.726302
v -0.000000 1.274940 0.763679
v 0.235990 1.274940 0.726302
v 0.448879 1.274940 0.617830
v 0.617830 1.274940 0.448879
v 0.726302 1.274940 0.235990
v 0.763679 1.274940 -0.000000
v 0.000000 -1.274940 0.000000
v 0.000000 1.274940 0.000000
v 0.951057 -1.009701 -0.309017
v 0.809018 -1.009701 -0.587786
v 0.587786 -1.009701 -0.809017
v 0.309017 -1.009701 -0.951057
v 0.000000 -1.009701 -1.000000
v -0.309017 -1.009701 -0.951057
v -0.587785 -1.009701 -0.809017
v -0.809017 -1.009701 -0.587785
v -0.951057 -1.009701 -0.309017
v -1.000000 -1.009701 0.000000
v -0.951057 -1.009701 0.309017
v -0.809017 -1.009701 0.587785
v -0.587785 -1.009701 0.809017
v -0.309017 -1.009701 0.951057
v -0.000000 -1.009701 1.000000
v 0.309017 -1.009701 0.951057
v 0.587785 -1.009701 0.809017
v 0.809017 -1.009701 0.587785
v 0.951056 -1.009701 0.309017
v 1.000000 -1.009701 0.000000
v 0.951057 1.022028 -0.309017
v 1.000000 1.022028 0.000000
v 0.951056 1.022028 0.309017
v 0.809017 1.022028 0.587785
v 0.587785 1.022028 0.809017
v 0.309017 1.022028 0.951057
v -0.000000 1.022028 1.000000
v -0.309017 1.022028 0.951057
v -0.587785 1.022028 0.809017
v -0.809017 1.022028 0.587785
v -0.951057 1.022028 0.309017
v -1.000000 1.022028 0.000000
v -0.951057 1.022028 -0.309017
v -0.809017 1.022028 -0.587785
v -0.587785 1.022028 -0.809017
v -0.309017 1.022028 -0.951057
v 0.000000 1.022028 -1.000000
v 0.309017 1.022028 -0.951057
v 0.587786 1.022028 -0.809017
v 0.809018 1.022028 -0.587786
v 0.880677 1.161035 -0.286149
v 0.925998 1.161035 -0.000000
v 0.880676 1.161035 0.286149
v 0.749148 1.161035 0.544288
v 0.544288 1.161035 0.749148
v 0.286149 1.161035 0.880676
v -0.000000 1.161035 0.925998
v -0.286149 1.161035 0.880677
v -0.544288 1.161035 0.749148
v -0.749148 1.161035 0.544288
v -0.880677 1.161035 0.286149
v -0.925998 1.161035 -0.000000
v -0.880677 1.161035 -0.286149
v -0.749148 1.161035 -0.544288
v -0.544288 1.161035 -0.749148
v -0.286149 1.161035 -0.880677
v -0.000000 1.161035 -0.925998
v 0.286149 1.161035 -0.880677
v 0.544288 1.161035 -0.749149
v 0.749149 1.161035 -0.544288
v 0.877966 -1.158490 -0.285268
v 0.746842 -1.158490 -0.542613
v 0.542613 -1.158490 -0.746842
v 0.285268 -1.158490 -0.877966
v -0.000000 -1.158490 -0.923148
v -0.285268 -1.158490 -0.877966
v -0.542613 -1.158490 -0.746842
v -0.746842 -1.158490 -0.542612
v -0.877965 -1.158490 -0.285268
v -0.923147 -1.158490 -0.000000
v -0.877965 -1.158490 0.285268
v -0.746842 -1.158490 0.542612
v -0.542612 -1.158490 0.746842
v -0.285268 -1.158490 0.877965
v -0.000000 -1.158490 0.923147
v 0.285268 -1.158490 0.877965
v 0.542612 -1.158490 0.746842
v 0.746842 -1.158490 0.542612
v 0.877965 -1.158490 0.285268
v 0.923147 -1.158490 -0.000000
vt 0.429686 0.877443
vt 0.418156 0.856148
vt 0.400197 0.839248
vt 0.377566 0.828397
vt 0.352481 0.824659
vt 0.327396 0.828397
vt 0.304765 0.839248
vt 0.286806 0.856148
vt 0.275276 0.877443
vt 0.271303 0.901048
vt 0.275276 0.924654
vt 0.286806 0.945949
vt 0.304766 0.962849
vt 0.327396 0.973699
vt 0.352481 0.977438
vt 0.377566 0.973699
vt 0.400197 0.962849
vt 0.418156 0.945949
vt 0.429687 0.924654
vt 0.433659 0.901048
vt 0.008929 0.264137
vt 0.057929 0.264137
vt 0.106927 0.264137
vt 0.155927 0.264137
vt 0.204926 0.264137
vt 0.253925 0.264137
vt 0.302924 0.264137
vt 0.351923 0.264137
vt 0.400922 0.264137
vt 0.449921 0.264137
vt 0.498920 0.264137
vt 0.547919 0.264137
vt 0.596918 0.264137
vt 0.645917 0.264137
vt 0.694916 0.264137
vt 0.743915 0.264137
vt 0.792915 0.264137
vt 0.841913 0.264137
vt 0.890913 0.264137
vt 0.939912 0.264137
vt 0.988911 0.264137
vt 0.008929 0.737316
vt 0.057929 0.737316
vt 0.106927 0.737316
vt 0.155927 0.737316
vt 0.204926 0.737316
vt 0.253925 0.737316
vt 0.302924 0.737316
vt 0.351923 0.737316
vt 0.400922 0.737316
vt 0.449921 0.737316
vt 0.498920 0.737316
vt 0.547919 0.737316
vt 0.596918 0.737316
vt 0.645917 0.737316
vt 0.694916 0.737316
vt 0.743915 0.737316
vt 0.792915 0.737316
vt 0.841913 0.737316
vt 0.890913 0.737316
vt 0.939912 0.737316
vt 0.988911 0.737316
vt 0.648116 0.824300
vt 0.636585 0.803005
vt 0.618626 0.786105
vt 0.595996 0.775255
vt 0.570911 0.771516
vt 0.545825 0.775255
vt 0.523195 0.786105
vt 0.505236 0.803005
vt 0.493705 0.824300
vt 0.489732 0.847906
vt 0.493705 0.871511
vt 0.505236 0.892806
vt 0.523195 0.909706
vt 0.545825 0.920556
vt 0.570911 0.924295
vt 0.595996 0.920556
vt 0.618626 0.909706
vt 0.636586 0.892806
vt 0.648116 0.871511
vt 0.652089 0.847906
vt 0.352481 0.897992
vt 0.570911 0.844850
vt 0.988911 0.313357
vt 0.008929 0.313357
vt 0.057929 0.313357
vt 0.106927 0.313357
vt 0.155927 0.313357
vt 0.204926 0.313357
vt 0.253925 0.313357
vt 0.302924 0.313357
vt 0.351923 0.313357
vt 0.400922 0.313357
vt 0.449921 0.313357
vt 0.498920 0.313357
vt 0.547919 0.313357
vt 0.596918 0.313357
vt 0.645917 0.313357
vt 0.694916 0.313357
vt 0.743915 0.313357
vt 0.792915 0.313357
vt 0.841913 0.313357
vt 0.890913 0.313357
vt 0.939912 0.313357
vt 0.988911 0.690383
vt 0.008929 0.690383
vt 0.939912 0.690383
vt 0.890913 0.690383
vt 0.841913 0.690383
vt 0.792915 0.690383
vt 0.743915 0.690383
vt 0.694916 0.690383
vt 0.645917 0.690383
vt 0.596918 0.690383
vt 0.547919 0.690383
vt 0.498920 0.690383
vt 0.449921 0.690383
vt 0.400922 0.690383
vt 0.351923 0.690383
vt 0.302924 0.690383
vt 0.253925 0.690383
vt 0.204926 0.690383
vt 0.155927 0.690383
vt 0.106927 0.690383
vt 0.057929 0.690383
vt 0.988911 0.716178
vt 0.008929 0.716178
vt 0.939912 0.716178
vt 0.890913 0.716178
vt 0.841913 0.716178
vt 0.792915 0.716178
vt 0.743915 0.716178
vt 0.694916 0.716178
vt 0.645917 0.716178
vt 0.596918 0.716178
vt 0.547919 0.716178
vt 0.498920 0.716178
vt 0.449921 0.716178
vt 0.400922 0.716178
vt 0.351923 0.716178
vt 0.302924 0.716178
vt 0.253925 0.716178
vt 0.204926 0.716178
vt 0.155927 0.716178
vt 0.106927 0.716178
vt 0.057929 0.716178
vt 0.988911 0.285747
vt 0.008929 0.285747
vt 0.057929 0.285747
vt 0.106927 0.285747
vt 0.155927 0.285747
vt 0.204926 0.285747
vt 0.253925 0.285747
vt 0.302924 0.285747
vt 0.351923 0.285747
vt 0.400922 0.285747
vt 0.449921 0.285747
vt 0.498920 0.285747
vt 0.547919 0.285747
vt 0.596918 0.285747
vt 0.645917 0.285747
vt 0.694916 0.285747
vt 0.743915 0.285747
vt 0.792915 0.285747
vt 0.841913 0.285747
vt 0.890913 0.285747
vt 0.939912 0.285747
vn 0.950554 -0.032506 -0.308853
vn 0.808589 -0.032506 -0.587475
vn 0.808617 0.031441 -0.587495
vn 0.950587 0.031441 -0.308863
vn 0.587475 -0.032506 -0.808590
vn 0.587495 0.031441 -0.808617
vn 0.308854 -0.032506 -0.950554
vn 0.308864 0.031441 -0.950586
vn -0.000000 -0.032506 -0.999472
vn -0.000000 0.031441 -0.999506
vn -0.308854 -0.032506 -0.950554
vn -0.308864 0.031441 -0.950586
vn -0.587475 -0.032506 -0.808589
vn -0.587495 0.031441 -0.808617
vn -0.808590 -0.032506 -0.587474
vn -0.808617 0.031441 -0.587495
vn -0.950554 -0.032506 -0.308854
vn -0.950586 0.031441 -0.308864
vn -0.999472 -0.032506 -0.000000
vn -0.999506 0.031441 0.000000
vn -0.950554 -0.032506 0.308854
vn -0.950586 0.031441 0.308864
vn -0.808589 -0.032506 0.587475
vn -0.808617 0.031441 0.587495
vn -0.587475 -0.032506 0.808589
vn -0.587495 0.031441 0.808617
vn -0.308854 -0.032506 0.950554
vn -0.308864 0.031441 0.950586
vn 0.000000 -0.032506 0.999472
vn 0.000000 0.031441 0.999506
vn 0.308854 -0.032506 0.950554
vn 0.308864 0.031441 0.950586
vn 0.587475 -0.032506 0.808590
vn 0.587495 0.031441 0.808617
vn 0.808590 -0.032506 0.587475
vn 0.808617 0.031441 0.587495
vn 0.950554 -0.032506 0.308854
vn 0.950586 0.031441 0.308864
vn 0.999472 -0.032506 0.000001
vn 0.999506 0.031441 0.000001
vn 0.000000 -1.000000 -0.000000
vn 0.000000 -1.000000 -0.000000
vn 0.000000 -1.000000 -0.000000
vn 0.000000 -1.000000 0.000000
vn 0.000000 -1.000000 -0.000000
vn 0.000000 -1.000000 -0.000000
vn 0.000000 -1.000000 -0.000000
vn 0.000000 -1.000000 -0.000000
vn 0.000000 -1.000000 0.000000
vn 0.000000 -1.000000 -0.000000
vn 0.000000 -1.000000 -0.000000
vn 0.000000 -1.000000 0.000000
vn 0.000000 -1.000000 -0.000000
vn 0.000000 -1.000000 0.000000
vn 0.000000 -1.000000 0.000000
vn 0.000000 -1.000000 -0.000000
vn 0.000000 -1.000000 -0.000000
vn 0.000000 -1.000000 -0.000000
vn 0.000000 -1.000000 -0.000000
vn 0.000000 -1.000000 0.000000
vn 0.000000 -1.000000 0.000000
vn 0.000000 1.000000 -0.000000
vn 0.000000 1.000000 -0.000000
vn 0.000000 1.000000 0.000000
vn 0.000000 1.000000 0.000000
vn 0.000000 1.000000 0.000000
vn 0.000000 1.000000 0.000000
vn 0.000000 1.000000 -0.000000
vn 0.000000 1.000000 -0.000000
vn 0.000000 1.000000 0.000000
vn 0.000000 1.000000 0.000000
vn 0.000000 1.000000 -0.000000
vn 0.000000 1.000000 0.000000
vn 0.000000 1.000000 -0.000000
vn 0.000000 1.000000 0.000000
vn 0.000000 1.000000 0.000000
vn 0.000000 1.000000 0.000000
vn 0.000000 1.000000 -0.000000
vn 0.000000 1.000000 0.000000
vn 0.000000 1.000000 0.000000
vn 0.000000 1.000000 0.000000
vn 0.000000 1.000000 0.000000
vn 0.729117 -0.642079 -0.236904
vn 0.620224 -0.642079 -0.450619
vn 0.450619 -0.642079 -0.620224
vn 0.236904 -0.642079 -0.729117
vn -0.000000 -0.642079 -0.766639
vn -0.236904 -0.642079 -0.729117
vn -0.450619 -0.642079 -0.620224
vn -0.620224 -0.642079 -0.450619
vn -0.729117 -0.642079 -0.236904
vn -0.766639 -0.642078 -0.000000
vn -0.729117 -0.642079 0.236904
vn -0.620224 -0.642079 0.450619
vn -0.450619 -0.642079 0.620224
vn -0.236904 -0.642079 0.729117
vn 0.000000 -0.642079 0.766639
vn 0.236904 -0.642079 0.729117
vn 0.450619 -0.642079 0.620224
vn 0.620224 -0.642079 0.450619
vn 0.729117 -0.642079 0.236904
vn 0.766639 -0.642079 0.000001
vn 0.714830 0.659601 -0.232261
vn 0.751616 0.659601 0.000001
vn 0.714830 0.659600 0.232262
vn 0.608070 0.659600 0.441789
vn 0.441789 0.659601 0.608070
vn 0.232262 0.659601 0.714830
vn 0.000000 0.659601 0.751616
vn -0.232262 0.659601 0.714830
vn -0.441789 0.659601 0.608070
vn -0.608070 0.659600 0.441789
vn -0.714830 0.659600 0.232262
vn -0.751617 0.659600 -0.000000
vn -0.714830 0.659600 -0.232262
vn -0.608070 0.659600 -0.441789
vn -0.441789 0.659600 -0.608070
vn -0.232262 0.659600 -0.714830
vn -0.000000 0.659600 -0.751617
vn 0.232262 0.659601 -0.714830
vn 0.441789 0.659601 -0.608070
vn 0.608070 0.659601 -0.441789
vn 0.546303 0.818563 -0.177504
vn 0.574417 0.818563 0.000001
vn 0.546304 0.818563 0.177505
vn 0.464714 0.818563 0.337634
vn 0.337634 0.818563 0.464713
vn 0.177505 0.818563 0.546303
vn 0.000000 0.818563 0.574417
vn -0.177505 0.818563 0.546303
vn -0.337634 0.818563 0.464713
vn -0.464713 0.818563 0.337634
vn -0.546304 0.818563 0.177505
vn -0.574418 0.818562 0.000000
vn -0.546304 0.818563 -0.177505
vn -0.464714 0.818563 -0.337634
vn -0.337634 0.818563 -0.464713
vn -0.177505 0.818563 -0.546304
vn -0.000000 0.818563 -0.574418
vn 0.177505 0.818563 -0.546303
vn 0.337634 0.818563 -0.464713
vn 0.464713 0.818563 -0.337634
vn 0.560876 -0.807594 -0.182239
vn 0.477109 -0.807594 -0.346640
vn 0.346640 -0.807594 -0.477109
vn 0.182239 -0.807594 -0.560876
vn -0.000000 -0.807593 -0.589740
vn -0.182240 -0.807593 -0.560876
vn -0.346640 -0.807593 -0.477109
vn -0.477110 -0.807593 -0.346640
vn -0.560876 -0.807593 -0.182240
vn -0.589740 -0.807593 -0.000000
vn -0.560876 -0.807593 0.182240
vn -0.477110 -0.807593 0.346640
vn -0.346640 -0.807594 0.477109
vn -0.182239 -0.807593 0.560876
vn 0.000000 -0.807593 0.589740
vn 0.182240 -0.807593 0.560876
vn 0.346640 -0.807593 0.477110
vn 0.477110 -0.807593 0.346640
vn 0.560876 -0.807593 0.182240
vn 0.589740 -0.807593 0.000001
s 1
g pCylinder1
usemtl initialShadingGroup
f 43/86/1 44/87/2 82/126/3 63/107/4
f 44/87/2 45/88/5 81/125/6 82/126/3
f 45/88/5 46/89/7 80/124/8 81/125/6
f 46/89/7 47/90/9 79/123/10 80/124/8
f 47/90/9 48/91/11 78/122/12 79/123/10
f 48/91/11 49/92/13 77/121/14 78/122/12
f 49/92/13 50/93/15 76/120/16 77/121/14
f 50/93/15 51/94/17 75/119/18 76/120/16
f 51/94/17 52/95/19 74/118/20 75/119/18
f 52/95/19 53/96/21 73/117/22 74/118/20
f 53/96/21 54/97/23 72/116/24 73/117/22
f 54/97/23 55/98/25 71/115/26 72/116/24
f 55/98/25 56/99/27 70/114/28 71/115/26
f 56/99/27 57/100/29 69/113/30 70/114/28
f 57/100/29 58/101/31 68/112/32 69/113/30
f 58/101/31 59/102/33 67/111/34 68/112/32
f 59/102/33 60/103/35 66/110/36 67/111/34
f 60/103/35 61/104/37 65/109/38 66/110/36
f 61/104/37 62/105/39 64/108/40 65/109/38
f 62/105/39 43/85/1 63/106/4 64/108/40
s 2
f 2/2/41 1/1/42 41/83/43
f 3/3/44 2/2/41 41/83/43
f 4/4/45 3/3/44 41/83/43
f 5/5/46 4/4/45 41/83/43
f 6/6/47 5/5/46 41/83/43
f 7/7/48 6/6/47 41/83/43
f 8/8/49 7/7/48 41/83/43
f 9/9/50 8/8/49 41/83/43
f 10/10/51 9/9/50 41/83/43
f 11/11/52 10/10/51 41/83/43
f 12/12/53 11/11/52 41/83/43
f 13/13/54 12/12/53 41/83/43
f 14/14/55 13/13/54 41/83/43
f 15/15/56 14/14/55 41/83/43
f 16/16/57 15/15/56 41/83/43
f 17/17/58 16/16/57 41/83/43
f 18/18/59 17/17/58 41/83/43
f 19/19/60 18/18/59 41/83/43
f 20/20/61 19/19/60 41/83/43
f 1/1/42 20/20/61 41/83/43
s 3
f 21/81/62 22/80/63 42/84/64
f 22/80/63 23/79/65 42/84/64
f 23/79/65 24/78/66 42/84/64
f 24/78/66 25/77/67 42/84/64
f 25/77/67 26/76/68 42/84/64
f 26/76/68 27/75/69 42/84/64
f 27/75/69 28/74/70 42/84/64
f 28/74/70 29/73/71 42/84/64
f 29/73/71 30/72/72 42/84/64
f 30/72/72 31/71/73 42/84/64
f 31/71/73 32/70/74 42/84/64
f 32/70/74 33/69/75 42/84/64
f 33/69/75 34/68/76 42/84/64
f 34/68/76 35/67/77 42/84/64
f 35/67/77 36/66/78 42/84/64
f 36/66/78 37/65/79 42/84/64
f 37/65/79 38/64/80 42/84/64
f 38/64/80 39/63/81 42/84/64
f 39/63/81 40/82/82 42/84/64
f 40/82/82 21/81/62 42/84/64
s 1
f 103/149/83 104/150/84 44/87/2 43/86/1
f 104/150/84 105/151/85 45/88/5 44/87/2
f 105/151/85 106/152/86 46/89/7 45/88/5
f 106/152/86 107/153/87 47/90/9 46/89/7
f 107/153/87 108/154/88 48/91/11 47/90/9
f 108/154/88 109/155/89 49/92/13 48/91/11
f 109/155/89 110/156/90 50/93/15 49/92/13
f 110/156/90 111/157/91 51/94/17 50/93/15
f 111/157/91 112/158/92 52/95/19 51/94/17
f 112/158/92 113/159/93 53/96/21 52/95/19
f 113/159/93 114/160/94 54/97/23 53/96/21
f 114/160/94 115/161/95 55/98/25 54/97/23
f 115/161/95 116/162/96 56/99/27 55/98/25
f 116/162/96 117/163/97 57/100/29 56/99/27
f 117/163/97 118/164/98 58/101/31 57/100/29
f 118/164/98 119/165/99 59/102/33 58/101/31
f 119/165/99 120/166/100 60/103/35 59/102/33
f 120/166/100 121/167/101 61/104/37 60/103/35
f 121/167/101 122/168/102 62/105/39 61/104/37
f 122/168/102 103/148/83 43/85/1 62/105/39
f 64/108/40 63/106/4 83/127/103 84/129/104
f 65/109/38 64/108/40 84/129/104 85/130/105
f 66/110/36 65/109/38 85/130/105 86/131/106
f 67/111/34 66/110/36 86/131/106 87/132/107
f 68/112/32 67/111/34 87/132/107 88/133/108
f 69/113/30 68/112/32 88/133/108 89/134/109
f 70/114/28 69/113/30 89/134/109 90/135/110
f 71/115/26 70/114/28 90/135/110 91/136/111
f 72/116/24 71/115/26 91/136/111 92/137/112
f 73/117/22 72/116/24 92/137/112 93/138/113
f 74/118/20 73/117/22 93/138/113 94/139/114
f 75/119/18 74/118/20 94/139/114 95/140/115
f 76/120/16 75/119/18 95/140/115 96/141/116
f 77/121/14 76/120/16 96/141/116 97/142/117
f 78/122/12 77/121/14 97/142/117 98/143/118
f 79/123/10 78/122/12 98/143/118 99/144/119
f 80/124/8 79/123/10 99/144/119 100/145/120
f 81/125/6 80/124/8 100/145/120 101/146/121
f 82/126/3 81/125/6 101/146/121 102/147/122
f 63/107/4 82/126/3 102/147/122 83/128/103
f 84/129/104 83/127/103 21/62/123 40/61/124
f 85/130/105 84/129/104 40/61/124 39/60/125
f 86/131/106 85/130/105 39/60/125 38/59/126
f 87/132/107 86/131/106 38/59/126 37/58/127
f 88/133/108 87/132/107 37/58/127 36/57/128
f 89/134/109 88/133/108 36/57/128 35/56/129
f 90/135/110 89/134/109 35/56/129 34/55/130
f 91/136/111 90/135/110 34/55/130 33/54/131
f 92/137/112 91/136/111 33/54/131 32/53/132
f 93/138/113 92/137/112 32/53/132 31/52/133
f 94/139/114 93/138/113 31/52/133 30/51/134
f 95/140/115 94/139/114 30/51/134 29/50/135
f 96/141/116 95/140/115 29/50/135 28/49/136
f 97/142/117 96/141/116 28/49/136 27/48/137
f 98/143/118 97/142/117 27/48/137 26/47/138
f 99/144/119 98/143/118 26/47/138 25/46/139
f 100/145/120 99/144/119 25/46/139 24/45/140
f 101/146/121 100/145/120 24/45/140 23/44/141
f 102/147/122 101/146/121 23/44/141 22/43/142
f 83/128/103 102/147/122 22/43/142 21/42/123
f 1/21/143 2/22/144 104/150/84 103/149/83
f 2/22/144 3/23/145 105/151/85 104/150/84
f 3/23/145 4/24/146 106/152/86 105/151/85
f 4/24/146 5/25/147 107/153/87 106/152/86
f 5/25/147 6/26/148 108/154/88 107/153/87
f 6/26/148 7/27/149 109/155/89 108/154/88
f 7/27/149 8/28/150 110/156/90 109/155/89
f 8/28/150 9/29/151 111/157/91 110/156/90
f 9/29/151 10/30/152 112/158/92 111/157/91
f 10/30/152 11/31/153 113/159/93 112/158/92
f 11/31/153 12/32/154 114/160/94 113/159/93
f 12/32/154 13/33/155 115/161/95 114/160/94
f 13/33/155 14/34/156 116/162/96 115/161/95
f 14/34/156 15/35/157 117/163/97 116/162/96
f 15/35/157 16/36/158 118/164/98 117/163/97
f 16/36/158 17/37/159 119/165/99 118/164/98
f 17/37/159 18/38/160 120/166/100 119/165/99
f 18/38/160 19/39/161 121/167/101 120/166/100
f 19/39/161 20/40/162 122/168/102 121/167/101
f 20/40/162 1/41/143 103/148/83 122/168/102
